<svg id="Capa_1" enable-background="new 0 0 512 512" height="512" viewBox="0 0 512 512" width="512" xmlns="http://www.w3.org/2000/svg"><g><path d="m452 83.499h15v15h-15z"/><path d="m452 113.5h15v15h-15z"/><path d="m279.505 149h15v15h-15z"/><path d="m279.505 179h15v15h-15z"/><path d="m497 399.79v-323.79c0-12.406-10.094-22.5-22.5-22.5h-112.496c-12.406 0-22.5 10.094-22.5 22.5v322.5h-131.26c-11.011-3.104-20.137-18.242-22.743-31.999h116.503c12.407 0 22.501-10.094 22.501-22.5v-202.501c0-12.406-10.094-22.5-22.501-22.5h-279.504c-12.406 0-22.5 10.094-22.5 22.5v29.999h15v-29.999c0-4.136 3.364-7.5 7.5-7.5h279.504c4.136 0 7.501 3.364 7.501 7.5v180.001h-294.505v-135.002h-15v157.502c0 12.406 10.094 22.5 22.5 22.5h116.573c-2.757 15.577-13.474 29.28-22.812 31.999h-93.761c-12.406 0-22.5 10.094-22.5 22.5v37.5h422v-15h-407v-22.5c0-4.136 3.364-7.5 7.5-7.5h467c4.136 0 7.5 3.364 7.5 7.5v22.5h-30v15h45v-37.5c0-9.777-6.271-18.114-15-21.21zm-134.996-331.29h112.496c4.136 0 7.5 3.364 7.5 7.5v277.501h-123.219l48.22-103.336v-78.554l-52.327-97.187c.726-3.381 3.735-5.924 7.33-5.924zm29.997 106.893v71.444l-37.497 80.354v-221.441zm-37.497 193.108h127.496v29.999h-127.496zm-339.504-24.5v-7.5h294.505v7.5c0 4.065-3.435 7.5-7.501 7.5h-279.504c-4.136 0-7.5-3.364-7.5-7.5zm139.161 22.5h16.183c1.561 10.454 6.191 22.591 13.584 31.999h-43.351c7.393-9.408 12.023-21.545 13.584-31.999z"/><path d="m437 443.5h15v15h-15z"/><path d="m444.5 338.501c12.406 0 22.5-10.093 22.5-22.499v-67.501c0-12.406-10.094-22.5-22.5-22.5s-22.5 10.094-22.5 22.5v67.501c0 12.406 10.094 22.499 22.5 22.499zm-7.5-90c0-4.136 3.364-7.5 7.5-7.5s7.5 3.364 7.5 7.5v67.501c0 4.135-3.364 7.499-7.5 7.499s-7.5-3.364-7.5-7.499z"/><path d="m444.5 211.001c12.406 0 22.5-10.094 22.5-22.5s-10.094-22.499-22.5-22.499-22.5 10.093-22.5 22.499 10.094 22.5 22.5 22.5zm0-29.999c4.136 0 7.5 3.364 7.5 7.499 0 4.136-3.364 7.5-7.5 7.5s-7.5-3.364-7.5-7.5c0-4.135 3.364-7.499 7.5-7.499z"/></g></svg>